<?xml version="1.0" encoding="utf-8"?>
<!-- Generator: Adobe Illustrator 19.1.0, SVG Export Plug-In . SVG Version: 6.00 Build 0)  -->
<!DOCTYPE svg PUBLIC "-//W3C//DTD SVG 1.1//EN" "http://www.w3.org/Graphics/SVG/1.1/DTD/svg11.dtd">
<svg version="1.1" id="Layer_1" xmlns="http://www.w3.org/2000/svg" xmlns:xlink="http://www.w3.org/1999/xlink" x="0px" y="0px"
	 viewBox="0 0 500 60" style="enable-background:new 0 0 500 60;" xml:space="preserve">
<style type="text/css">
	.st0{fill:#95C11F;}
	.st1{fill:#3C3C3B;}
	.st2{fill:#FFFFFF;}
</style>
<g>
	<g>
		<polygon class="st1" points="183.1,16.4 195.3,16.4 195.3,49.6 202.1,49.6 202.1,16.4 214.9,16.4 214.9,10.3 183.1,10.3 		"/>
		<path class="st1" d="M239.1,36.4c0,2.2-0.7,3.9-2.1,5.2c-1.4,1.3-3.3,1.9-5.8,1.9c-2.2,0-3.9-0.6-5.2-1.9c-1.3-1.3-1.9-3-1.9-5
			V10.3h-6.8v26.6c0,4.1,1.2,7.2,3.6,9.4c2.4,2.2,5.9,3.3,10.3,3.3c4.4,0,8-1.1,10.6-3.4c2.6-2.2,4-5.3,4-9.3V10.3h-6.8V36.4z"/>
		<g>
			<polygon class="st1" points="287,49.6 287,25.2 305.6,49.6 308.4,49.6 308.4,10.3 301.9,10.3 301.9,33.7 283.7,10.3 280.5,10.3 
				280.5,49.6 			"/>
		</g>
		<g>
			<polygon class="st1" points="447.6,49.6 447.6,25.2 466.2,49.6 469,49.6 469,10.3 462.5,10.3 462.5,33.7 444.3,10.3 441.1,10.3 
				441.1,49.6 			"/>
		</g>
		<path class="st1" d="M329.2,10.3h-3l-15.4,39.3h7.6l2.7-7.8h13.2l2.8,7.8h7.5L329.2,10.3z M323.1,36.6l4.6-14.2l4.6,14.2H323.1z"
			/>
		<path class="st1" d="M403.2,15.4c-2.9-3.4-7.1-5.1-12.7-5.1c-5,0-9,1.9-12,5.6c-3,3.7-4.5,8.3-4.5,13.7c0,6.2,1.4,11,4.1,14.6
			c2.8,3.6,6.7,5.3,11.9,5.3c5.6,0,9.9-1.8,13-5.4c3-3.6,4.6-8.4,4.6-14.6C407.6,23.6,406.1,18.8,403.2,15.4z M397.8,40
			c-1.8,2.4-4.4,3.6-7.8,3.6c-2.9,0-5.1-1.2-6.6-3.7c-1.5-2.4-2.3-5.9-2.3-10.3c0-4.1,0.8-7.3,2.4-9.7c1.6-2.4,4-3.6,7-3.6
			c6.6,0,10,4.4,10,13.3C400.5,34.2,399.6,37.7,397.8,40z"/>
		<path class="st1" d="M431.7,36.4c0,2.2-0.7,3.9-2.1,5.2c-1.4,1.3-3.3,1.9-5.8,1.9c-2.2,0-3.9-0.6-5.2-1.9c-1.3-1.3-1.9-3-1.9-5
			V10.3H410v26.6c0,4.1,1.2,7.2,3.6,9.4c2.4,2.2,5.9,3.3,10.3,3.3c4.4,0,8-1.1,10.6-3.4c2.6-2.2,4-5.3,4-9.3V10.3h-6.8V36.4z"/>
		<path class="st1" d="M495.1,15.4c-3.3-3.3-7.7-5-13.3-5c-1.4,0-4.8,0.1-10.3,0.3v39h8.5c13.3,0,20-7,20-21
			C500,23.1,498.4,18.7,495.1,15.4z M490,39.7c-1.9,2.5-4.6,3.8-8.1,3.8c-1.3,0-2.5-0.1-3.6-0.2V16.7c1.3-0.1,2.4-0.2,3.1-0.2
			c7.6,0,11.5,4.2,11.5,12.5C492.9,33.6,491.9,37.1,490,39.7z"/>
		<polygon class="st0" points="93.7,12.6 93.7,10.4 68.2,10.4 68.2,16.6 83.9,16.6 67.9,47.4 67.9,49.7 93.8,49.7 93.8,43.5 
			77.1,43.5 		"/>
		<polygon class="st0" points="96.2,49.7 120.4,49.7 120.4,43.5 103,43.5 103,31.7 115.7,31.7 115.7,25.8 103,25.8 103,16.6 
			120.7,16.6 120.7,10.4 96.2,10.4 		"/>
		<path class="st0" d="M179.3,15.5c-2.9-3.4-7.1-5.1-12.7-5.1c-5,0-9,1.9-12,5.6c-3,3.7-4.5,8.3-4.5,13.7c0,6.2,1.4,11.1,4.1,14.6
			c2.8,3.6,6.7,5.3,11.9,5.3c5.6,0,9.9-1.8,13-5.4c3-3.6,4.6-8.5,4.6-14.6S182.3,18.9,179.3,15.5z M174,40.1
			c-1.8,2.4-4.4,3.6-7.8,3.6c-2.9,0-5.1-1.2-6.6-3.7c-1.5-2.4-2.3-5.9-2.3-10.3c0-4.1,0.8-7.3,2.4-9.7c1.6-2.4,4-3.6,7-3.6
			c6.6,0,10,4.5,10,13.4C176.6,34.3,175.7,37.7,174,40.1z"/>
		<path class="st1" d="M266.6,32c2-0.8,3.7-2.1,5.1-4c1.3-1.9,2-4,2-6.2c0-7.6-4.9-11.4-14.6-11.4c-1.6,0-3.6,0.1-6.2,0.2
			c-2.6,0.1-4,0.2-4.4,0.2l0,38.9h7.1l0-16.4c1.9,0.1,3.3,0.2,4.3,0.2l10.4,16.2h7.9L266.6,32z M264.6,26.4
			c-1.3,0.8-3.4,1.2-6.3,1.2c-0.7,0-1.6-0.1-2.9-0.2V16.7c0.8-0.1,1.6-0.2,2.3-0.2c3,0,5.3,0.4,6.7,1.1c1.4,0.8,2.1,2.1,2.1,4
			C266.6,24,265.9,25.6,264.6,26.4z"/>
		<path class="st0" d="M141.3,31.9c2-0.8,3.7-2.1,5.1-4c1.3-1.9,2-3.9,2-6.2c0-7.6-4.9-11.3-14.6-11.3c-1.6,0-3.6,0.1-6.2,0.2
			c-2.6,0.1-4,0.2-4.4,0.2v38.9l7.1,0l0-16.5c1.9,0.1,3.3,0.2,4.3,0.2l10.5,16.3h7.9L141.3,31.9z M139.4,26.3
			c-1.3,0.8-3.4,1.2-6.3,1.2c-0.7,0-1.6-0.1-2.9-0.2V16.7c0.8-0.1,1.6-0.2,2.3-0.2c3,0,5.3,0.4,6.7,1.1c1.4,0.8,2.1,2.1,2.1,4
			C141.4,24,140.7,25.5,139.4,26.3z"/>
		<path class="st1" d="M365.3,32c2-0.8,3.7-2.1,5.1-4c1.3-1.9,2-4,2-6.3c0-7.6-4.9-11.4-14.6-11.4c-1.6,0-3.6,0.1-6.2,0.2
			c-2.6,0.1-4,0.2-4.4,0.2l0,38.9l7.1,0l0-16.4c1.9,0.1,3.3,0.2,4.3,0.2l10.4,16.2h7.9L365.3,32z M363.3,26.4
			c-1.3,0.8-3.4,1.2-6.3,1.2c-0.7,0-1.6-0.1-2.9-0.2V16.7c0.8-0.1,1.6-0.2,2.3-0.2c3,0,5.3,0.4,6.7,1.1c1.4,0.8,2.1,2.1,2.1,4
			C365.3,24,364.7,25.5,363.3,26.4z"/>
	</g>
	<path class="st0" d="M54.8,15.7C46.9,4.5,34.8,1.7,30.6,1l0.3-0.6l-22.1,0l8.1,4.8c-8,3-25,18.5-12.4,39
		C12.7,57,26.8,59.1,28.6,59.1l-0.3,0.4l0.7,0c0.2,0,0.3,0,0.4,0l21,0l-7.7-5C50.9,51.2,67.1,35.9,54.8,15.7z M40,50.5l-0.1-11.4
		l-10.7,19c-5.8-3.9-10.1-8.3-12.9-13.6l27.9-27.4c1.3,3.6,2,7.4,2.4,11.8C47.6,37.8,42.3,47,40,50.5z M19.5,20.7L30.1,1.9
		c7.3,4.2,11.2,8.6,13.5,13.6l-28,27.5c-1.7-3.6-2.7-7.6-3-12c-0.7-9.1,4.6-18.4,6.7-21.8L19.5,20.7z"/>
</g>
</svg>
